<?xml version="1.0" standalone="no"?>
<!DOCTYPE svg PUBLIC "-//W3C//DTD SVG 20010904//EN"
 "http://www.w3.org/TR/2001/REC-SVG-20010904/DTD/svg10.dtd">
<svg version="1.0" xmlns="http://www.w3.org/2000/svg"
 width="260.000000pt" height="260.000000pt" viewBox="0 0 260.000000 260.000000"
 preserveAspectRatio="xMidYMid meet">
<metadata>
Created by potrace 1.11, written by Peter Selinger 2001-2013
</metadata>
<g transform="translate(0.000000,260.000000) scale(0.100000,-0.100000)"
fill="#000000" stroke="none">
<path d="M1220 2549 c-162 -47 -292 -148 -380 -294 -28 -46 -50 -85 -50 -88 0
-4 -13 -28 -28 -54 -15 -26 -36 -70 -47 -98 -18 -50 -108 -197 -140 -228 -9
-9 -14 -17 -10 -17 3 0 -6 -15 -20 -34 -34 -44 -82 -145 -90 -188 -4 -20 0
-58 8 -90 14 -55 14 -56 -9 -69 -13 -7 -24 -16 -24 -21 0 -4 -8 -8 -17 -8 -11
-1 -3 -9 19 -21 21 -11 38 -24 38 -29 0 -5 9 -7 21 -5 11 2 19 -1 17 -6 -2 -6
-7 -10 -11 -10 -4 1 -16 -7 -27 -16 -11 -10 -29 -26 -40 -35 -11 -10 -23 -17
-27 -17 -5 1 -19 1 -32 0 -19 -1 -22 -5 -18 -22 5 -17 2 -20 -14 -16 -19 5
-19 4 -4 -19 14 -21 13 -28 -5 -26 -3 0 -7 -8 -7 -19 -1 -12 5 -19 17 -19 10
0 21 -4 25 -10 3 -5 12 -7 21 -3 12 4 13 1 4 -22 -6 -15 -8 -31 -5 -36 3 -4
-2 -20 -11 -34 -9 -14 -14 -34 -11 -45 3 -11 -1 -27 -10 -35 -8 -8 -11 -15 -7
-15 3 0 1 -7 -6 -15 -7 -8 -9 -15 -4 -15 4 0 -1 -6 -12 -14 -10 -8 -16 -18
-11 -22 4 -4 7 -2 7 4 0 7 4 12 9 12 12 0 6 -72 -9 -99 -13 -26 -27 -27 -35
-2 -3 11 -12 22 -20 25 -8 3 -15 18 -16 33 0 26 -1 27 -9 6 -5 -12 -6 -34 -2
-50 10 -36 4 -73 -11 -73 -22 0 -38 17 -31 33 3 9 -7 35 -27 63 -21 30 -28 49
-21 52 7 2 12 13 12 24 0 17 -2 18 -15 8 -12 -10 -19 -10 -27 -2 -18 18 -38
14 -39 -5 0 -10 -5 -2 -11 17 -5 19 -21 50 -34 68 -14 17 -22 37 -19 42 3 6 1
10 -4 10 -8 0 -11 -155 -11 -500 l0 -500 1300 0 1300 0 0 765 c0 421 -3 765
-8 765 -14 0 -52 -48 -83 -107 -7 -13 -20 -23 -30 -23 -9 0 -19 -7 -23 -15 -3
-8 -12 -15 -20 -15 -9 0 -20 -9 -26 -21 -6 -11 -17 -18 -23 -16 -7 2 -31 -7
-54 -20 -24 -13 -46 -23 -50 -23 -5 0 -8 -5 -8 -12 0 -16 -17 -20 -35 -7 -11
8 -12 12 -2 16 31 12 42 62 41 179 -1 128 -16 204 -54 273 -14 24 -23 47 -20
51 3 5 -4 24 -16 42 -12 18 -18 24 -15 14 5 -15 4 -17 -8 -7 -7 6 -16 21 -19
32 -4 16 -3 18 9 8 19 -16 18 -11 -15 57 -16 33 -39 95 -51 139 -41 147 -95
235 -143 235 -23 0 -91 53 -186 148 -46 45 -62 53 -172 86 -111 33 -267 35
-369 5z m496 -424 c16 -14 43 -35 60 -47 39 -27 98 -139 123 -233 35 -129 -22
-543 -89 -648 -15 -25 -64 -75 -108 -111 -68 -56 -81 -72 -86 -104 -11 -65 -9
-127 3 -150 12 -22 31 -30 31 -13 0 5 7 12 16 15 11 4 15 2 11 -8 -4 -9 -1
-13 6 -11 13 5 33 -19 66 -79 22 -39 29 -112 10 -101 -6 4 -8 13 -5 21 3 8 0
11 -8 8 -13 -5 -56 43 -56 63 0 4 -7 17 -15 27 -15 19 -16 19 -75 -9 -50 -24
-63 -27 -82 -17 -31 16 -121 82 -163 120 -19 17 -41 33 -48 36 -6 4 -2 4 11 2
31 -6 28 2 -18 41 -22 19 -40 38 -40 43 0 9 69 7 147 -4 l38 -5 -40 11 c-22 6
-62 26 -90 44 -27 18 -81 47 -119 64 -74 33 -122 77 -156 146 -20 40 -27 89
-12 96 10 4 52 95 52 114 0 17 58 164 71 178 4 5 29 10 56 12 76 6 89 12 105
44 l15 30 26 -30 c37 -41 51 -38 25 6 -27 46 -77 68 -134 60 l-41 -5 4 37 c2
20 8 41 13 46 5 5 42 0 89 -11 51 -13 83 -17 87 -11 10 15 -5 24 -87 53 -84
29 -88 38 -49 95 10 14 18 27 18 30 0 3 5 18 11 33 6 16 11 33 11 38 0 14 73
80 85 76 5 -2 22 -1 37 4 17 5 33 3 44 -6 10 -7 24 -11 31 -8 7 3 16 -2 19
-11 7 -17 34 -22 34 -6 0 6 -5 10 -11 10 -5 0 -7 5 -4 11 4 6 14 8 22 4 9 -3
21 2 28 12 8 12 28 19 57 20 36 2 51 -2 74 -22z m524 -474 c11 -35 19 -65 17
-67 -4 -4 -67 158 -67 172 1 17 28 -41 50 -105z m-995 13 c16 -25 16 -25 -4
-14 -12 6 -21 17 -21 25 0 21 5 19 25 -11z m982 -66 c-3 -8 -6 -5 -6 6 -1 11
2 17 5 13 3 -3 4 -12 1 -19z m23 -72 c0 -39 -6 -31 -14 19 -5 29 -4 36 3 25 6
-8 11 -28 11 -44z m20 -105 c0 -42 -18 -103 -29 -97 -4 3 -2 36 3 75 10 73 26
87 26 22z m-107 -196 c-3 -9 -8 -14 -10 -11 -3 3 -2 9 2 15 9 16 15 13 8 -4z
m-12 -42 c0 -5 2 -16 4 -25 3 -14 0 -15 -16 -5 -23 14 -25 37 -4 37 8 0 15 -3
16 -7z m-44 -45 c-3 -8 -6 -5 -6 6 -1 11 2 17 5 13 3 -3 4 -12 1 -19z m-1977
-308 c0 -5 -2 -10 -4 -10 -3 0 -8 5 -11 10 -3 6 -1 10 4 10 6 0 11 -4 11 -10z
m1360 -107 c0 -7 -39 17 -46 28 -3 6 5 3 20 -6 14 -10 26 -19 26 -22z m-25
-13 c3 -6 -1 -7 -9 -4 -18 7 -21 14 -7 14 6 0 13 -4 16 -10z m332 -70 c-1 -11
-5 -20 -9 -20 -10 0 -10 4 -2 24 8 22 13 20 11 -4z"/>
<path d="M1724 1811 c-34 -16 -64 -34 -68 -40 -11 -18 34 -13 83 9 55 26 96
25 118 0 21 -24 33 -26 33 -6 0 20 -62 66 -86 66 -10 -1 -47 -14 -80 -29z"/>
<path d="M1770 1720 c11 -7 5 -10 -25 -10 -22 0 -55 -9 -72 -20 -34 -21 -44
-34 -18 -24 8 4 15 1 15 -5 0 -6 -11 -11 -25 -11 -14 0 -25 -3 -25 -7 0 -5 15
-7 32 -6 18 1 43 2 56 2 14 1 26 10 32 26 6 16 14 23 25 19 22 -9 19 -29 -7
-47 -23 -15 -23 -15 9 -12 39 2 63 21 63 46 0 24 -34 59 -57 59 -15 0 -16 -2
-3 -10z m-50 -34 c0 -2 -7 -7 -16 -10 -8 -3 -12 -2 -9 4 6 10 25 14 25 6z"/>
<path d="M1320 1233 c0 -17 180 -31 260 -21 41 5 76 10 77 12 2 2 -58 3 -134
3 -76 0 -153 3 -170 7 -18 4 -33 4 -33 -1z"/>
<path d="M1478 963 c6 -2 18 -2 25 0 6 3 1 5 -13 5 -14 0 -19 -2 -12 -5z"/>
<path d="M0 1171 c0 -21 5 -31 15 -31 8 0 15 8 15 19 0 10 -7 24 -15 31 -13
11 -15 8 -15 -19z"/>
<path d="M235 910 c3 -5 8 -10 11 -10 2 0 4 5 4 10 0 6 -5 10 -11 10 -5 0 -7
-4 -4 -10z"/>
<path d="M280 800 c0 -5 5 -10 10 -10 6 0 10 5 10 10 0 6 -4 10 -10 10 -5 0
-10 -4 -10 -10z"/>
</g>
</svg>
